#!OML:ASF H:\Terrain\Patient Classification 1\Terrain2\Thursday\justin.ASF
:FULLY-SPECIFIED
:DEGREES
1257
root 8.70645 23.143 13.5003 -370.013 5.93662 -1.42289
lowerback 7.66054 -0.325625 -2.31504
upperback 3.85153 -0.56113 2.04779
thorax -0.26903 -0.327306 3.45911
lowerneck -11.6346 -2.41409 -9.72055
upperneck 40.4976 -2.03767 3.26608
head 16.7941 -1.873 2.87171
rclavicle 6.36732e-015 1.94809e-014
rhumerus -34.299 -14.0503 -73.071
rradius 28.7646
rwrist -8.53776
rhand -21.1584 12.422
rfingers 7.12502
rthumb 5.22142 -17.4937
lclavicle 6.36732e-015 1.94809e-014
lhumerus -32.8419 -0.335858 81.1804
lradius 53.0139
lwrist 9.48306
lhand -21.6867 21.0587
lfingers 7.12502
lthumb 4.71128 50.9864
rfemur -25.1669 -13.0673 23.9567
rtibia 34.8087
rfoot 18.8913 -5.18959
rtoes 13.2419
lfemur 7.28667 9.81152 -16.1523
ltibia 41.9818
lfoot -14.3276 -22.6024
ltoes 15.2554
1258
root 8.70139 23.0513 13.6205 -370.035 6.21248 -1.17702
lowerback 7.53216 -0.278412 -2.44872
upperback 3.87483 -0.50574 1.96073
thorax -0.177697 -0.302232 3.43855
lowerneck -11.6304 -2.36418 -9.42469
upperneck 40.4773 -1.97781 3.10802
head 16.7658 -1.82029 2.75763
rclavicle 1.21631e-014 -1.98785e-014
rhumerus -34.4643 -13.9312 -73.0174
rradius 28.8044
rwrist -8.26157
rhand -20.8644 12.0306
rfingers 7.12502
rthumb 5.50526 -17.8779
lclavicle 1.21631e-014 -1.98785e-014
lhumerus -33.1787 -0.507722 81.25
lradius 52.9589
lwrist 9.43466
lhand -21.4738 21.6275
lfingers 7.12502
lthumb 4.91688 51.5504
rfemur -24.3036 -13.3991 23.7489
rtibia 33.0731
rfoot 19.6183 -5.31885
rtoes 12.4412
lfemur 7.14708 9.77415 -16.2404
ltibia 43.4485
lfoot -14.9356 -22.8477
ltoes 14.3556
1259
root 8.69666 22.9558 13.7401 -370.023 6.42541 -1.48114
lowerback 7.17046 -0.193531 -1.95621
upperback 3.96642 -0.356155 2.00319
thorax 0.100683 -0.225766 3.18947
lowerneck -11.5889 -2.48641 -9.43562
upperneck 40.4125 -2.21262 3.24117
head 16.7431 -1.89598 2.77897
rclavicle -7.62836e-015 1.59028e-015
rhumerus -34.4941 -14.3413 -72.8114
rradius 28.5527
rwrist -8.02876
rhand -20.7938 12.6397
rfingers 7.12502
rthumb 5.57348 -17.267
lclavicle -7.62836e-015 1.59028e-015
lhumerus -33.415 -0.881809 81.3748
lradius 52.9046
lwrist 9.35699
lhand -21.447 21.3655
lfingers 7.12502
lthumb 4.94271 51.2879
rfemur -23.5288 -13.537 24.1073
rtibia 31.3623
rfoot 20.1643 -6.16458
rtoes 13.6846
lfemur 6.88441 9.63425 -15.7264
ltibia 44.9363
lfoot -15.5796 -23.3679
ltoes 13.822
1260
root 8.69146 22.8615 13.861 -369.937 6.42945 -1.90435
lowerback 6.82833 -0.120176 -1.44565
upperback 3.97227 -0.224907 2.14918
thorax 0.284091 -0.155753 3.04105
lowerneck -11.6822 -2.63805 -9.71017
upperneck 40.5436 -2.43478 3.45356
head 16.8728 -2.00306 2.89067
rclavicle -7.75881e-015 -2.42517e-014
rhumerus -34.4814 -14.1325 -72.779
rradius 28.3962
rwrist -8.15707
rhand -20.9804 12.3275
rfingers 7.12502
rthumb 5.3933 -17.5839
lclavicle -7.75881e-015 -2.42517e-014
lhumerus -33.6278 -0.985208 81.4743
lradius 52.7212
lwrist 9.20189
lhand -21.5001 21.3411
lfingers 7.12502
lthumb 4.89148 51.2646
rfemur -22.8533 -13.4142 24.6606
rtibia 29.6957
rfoot 20.6759 -6.99062
rtoes 14.225
lfemur 6.49786 9.57403 -15.0724
ltibia 46.4183
lfoot -15.7163 -24.1884
ltoes 15.5656
1261
root 8.68589 22.7663 13.9873 -369.878 6.46419 -1.7987
lowerback 6.63941 -0.106311 -1.56619
upperback 3.92231 -0.211589 2.21474
thorax 0.337461 -0.151905 3.17516
lowerneck -11.6637 -2.6525 -10.0025
upperneck 40.5978 -2.40863 3.55081
head 16.9071 -2.02518 2.99383
rclavicle -2.20527e-015 -6.36111e-015
rhumerus -34.5413 -13.6399 -72.7599
rradius 28.3636
rwrist -8.11294
rhand -21.217 11.839
rfingers 7.12502
rthumb 5.16485 -18.078
lclavicle -2.20527e-015 -6.36111e-015
lhumerus -34.0329 -0.737451 81.5221
lradius 52.499
lwrist 8.79883
lhand -21.2983 21.5854
lfingers 7.12502
lthumb 5.08632 51.5043
rfemur -22.008 -13.4328 24.6656
rtibia 27.992
rfoot 21.4546 -6.7434
rtoes 11.5669
lfemur 6.2194 9.5195 -15.02
ltibia 47.8986
lfoot -15.8679 -24.6709
ltoes 16.4551
